<svg xmlns="http://www.w3.org/2000/svg" xmlns:xlink="http://www.w3.org/1999/xlink" width="630" zoomAndPan="magnify" viewBox="0 0 472.5 485.249994" height="647" preserveAspectRatio="xMidYMid meet" version="1.0"><defs><g/><clipPath id="a65ed21c43"><path d="M 86 0 L 417 0 L 417 443 L 86 443 Z M 86 0 " clip-rule="nonzero"/></clipPath></defs><g clip-path="url(#a65ed21c43)"><path fill="#f1473a" d="M 254.59375 442.609375 C 208.90625 442.609375 95.988281 435.480469 85.984375 305.679688 C 85.984375 305.679688 115.234375 357.402344 115.277344 351.324219 C 115.417969 331.582031 85.984375 259.324219 159.566406 210.117188 C 249.617188 149.902344 222.445312 76.035156 201.007812 74.613281 C 201.007812 74.613281 258.636719 68.789062 263.886719 145.078125 C 266.738281 186.582031 301.753906 66.769531 281.035156 0.441406 C 281.035156 0.441406 386.234375 56.070312 373.191406 192.996094 C 373.191406 192.996094 389.449219 161.980469 416.777344 178.554688 C 416.777344 178.554688 399.628906 184.445312 405.347656 230.089844 C 411.058594 275.726562 436.0625 442.609375 254.59375 442.609375 " fill-opacity="1" fill-rule="nonzero"/></g><path fill="#f79326" d="M 241.019531 437.871094 C 211.488281 436.527344 155.28125 430.027344 155.28125 356.570312 C 155.28125 283.117188 228.875 273.128906 228.875 205.378906 C 228.875 205.378906 263.878906 217.5 260.3125 251.023438 C 260.3125 251.023438 328.898438 208.234375 323.179688 157.597656 C 323.179688 157.597656 471.550781 448.398438 241.019531 437.871094 " fill-opacity="1" fill-rule="nonzero"/><path fill="#f79326" d="M 241.019531 437.871094 C 211.488281 436.527344 155.28125 430.027344 155.28125 356.570312 C 155.28125 283.117188 228.875 273.128906 228.875 205.378906 C 228.875 205.378906 263.878906 217.5 260.3125 251.023438 C 260.3125 251.023438 328.898438 208.234375 323.179688 157.597656 C 323.179688 157.597656 471.550781 448.398438 241.019531 437.871094 " fill-opacity="1" fill-rule="nonzero"/><path fill="#fff533" d="M 255.3125 311.347656 C 255.3125 311.347656 273.171875 363.625 243.878906 363.625 C 223.515625 363.625 226.011719 341.519531 226.011719 341.519531 C 226.011719 341.519531 169.214844 433.515625 255.3125 433.515625 C 272.75 433.515625 303.179688 429.949219 303.179688 382.882812 C 303.179688 335.8125 276.738281 316.832031 255.3125 311.347656 " fill-opacity="1" fill-rule="nonzero"/><g fill="#ff0000" fill-opacity="1"><g transform="translate(252.944081, 366.097524)"><g><path d="M 101.96875 -170.9375 C 102.957031 -172.757812 104.445312 -173.671875 106.4375 -173.671875 L 144.140625 -173.671875 C 145.128906 -173.671875 145.914062 -173.335938 146.5 -172.671875 C 147.082031 -172.015625 147.289062 -171.101562 147.125 -169.9375 L 126.78125 -3.71875 C 126.613281 -2.5625 126.15625 -1.648438 125.40625 -0.984375 C 124.664062 -0.328125 123.800781 0 122.8125 0 L 84.59375 0 C 83.601562 0 82.816406 -0.328125 82.234375 -0.984375 C 81.660156 -1.648438 81.457031 -2.5625 81.625 -3.71875 L 94.03125 -105.1875 C 94.195312 -105.851562 94.070312 -106.226562 93.65625 -106.3125 C 93.238281 -106.394531 92.863281 -106.1875 92.53125 -105.6875 L 75.671875 -81.375 L 72.6875 -76.90625 L 72.4375 -76.90625 L 59.796875 -105.6875 C 59.628906 -106.1875 59.378906 -106.394531 59.046875 -106.3125 C 58.710938 -106.226562 58.460938 -105.851562 58.296875 -105.1875 L 45.890625 -3.71875 C 45.734375 -2.5625 45.320312 -1.648438 44.65625 -0.984375 C 44 -0.328125 43.085938 0 41.921875 0 L 3.96875 0 C 2.8125 0 1.941406 -0.328125 1.359375 -0.984375 C 0.785156 -1.648438 0.582031 -2.5625 0.75 -3.71875 L 21.09375 -169.9375 C 21.257812 -171.101562 21.710938 -172.015625 22.453125 -172.671875 C 23.191406 -173.335938 24.0625 -173.671875 25.0625 -173.671875 L 62.765625 -173.671875 C 64.753906 -173.671875 66.078125 -172.757812 66.734375 -170.9375 L 79.890625 -138.6875 C 80.210938 -138.019531 80.707031 -138.019531 81.375 -138.6875 Z M 101.96875 -170.9375 "/></g></g></g><g fill="#00ffff" fill-opacity="1"><g transform="translate(272.888681, 361.49293)"><g><path d="M 101.96875 -170.9375 C 102.957031 -172.757812 104.445312 -173.671875 106.4375 -173.671875 L 144.140625 -173.671875 C 145.128906 -173.671875 145.914062 -173.335938 146.5 -172.671875 C 147.082031 -172.015625 147.289062 -171.101562 147.125 -169.9375 L 126.78125 -3.71875 C 126.613281 -2.5625 126.15625 -1.648438 125.40625 -0.984375 C 124.664062 -0.328125 123.800781 0 122.8125 0 L 84.59375 0 C 83.601562 0 82.816406 -0.328125 82.234375 -0.984375 C 81.660156 -1.648438 81.457031 -2.5625 81.625 -3.71875 L 94.03125 -105.1875 C 94.195312 -105.851562 94.070312 -106.226562 93.65625 -106.3125 C 93.238281 -106.394531 92.863281 -106.1875 92.53125 -105.6875 L 75.671875 -81.375 L 72.6875 -76.90625 L 72.4375 -76.90625 L 59.796875 -105.6875 C 59.628906 -106.1875 59.378906 -106.394531 59.046875 -106.3125 C 58.710938 -106.226562 58.460938 -105.851562 58.296875 -105.1875 L 45.890625 -3.71875 C 45.734375 -2.5625 45.320312 -1.648438 44.65625 -0.984375 C 44 -0.328125 43.085938 0 41.921875 0 L 3.96875 0 C 2.8125 0 1.941406 -0.328125 1.359375 -0.984375 C 0.785156 -1.648438 0.582031 -2.5625 0.75 -3.71875 L 21.09375 -169.9375 C 21.257812 -171.101562 21.710938 -172.015625 22.453125 -172.671875 C 23.191406 -173.335938 24.0625 -173.671875 25.0625 -173.671875 L 62.765625 -173.671875 C 64.753906 -173.671875 66.078125 -172.757812 66.734375 -170.9375 L 79.890625 -138.6875 C 80.210938 -138.019531 80.707031 -138.019531 81.375 -138.6875 Z M 101.96875 -170.9375 "/></g></g></g><g fill="#191919" fill-opacity="1"><g transform="translate(262.91638, 363.795227)"><g><path d="M 101.96875 -170.9375 C 102.957031 -172.757812 104.445312 -173.671875 106.4375 -173.671875 L 144.140625 -173.671875 C 145.128906 -173.671875 145.914062 -173.335938 146.5 -172.671875 C 147.082031 -172.015625 147.289062 -171.101562 147.125 -169.9375 L 126.78125 -3.71875 C 126.613281 -2.5625 126.15625 -1.648438 125.40625 -0.984375 C 124.664062 -0.328125 123.800781 0 122.8125 0 L 84.59375 0 C 83.601562 0 82.816406 -0.328125 82.234375 -0.984375 C 81.660156 -1.648438 81.457031 -2.5625 81.625 -3.71875 L 94.03125 -105.1875 C 94.195312 -105.851562 94.070312 -106.226562 93.65625 -106.3125 C 93.238281 -106.394531 92.863281 -106.1875 92.53125 -105.6875 L 75.671875 -81.375 L 72.6875 -76.90625 L 72.4375 -76.90625 L 59.796875 -105.6875 C 59.628906 -106.1875 59.378906 -106.394531 59.046875 -106.3125 C 58.710938 -106.226562 58.460938 -105.851562 58.296875 -105.1875 L 45.890625 -3.71875 C 45.734375 -2.5625 45.320312 -1.648438 44.65625 -0.984375 C 44 -0.328125 43.085938 0 41.921875 0 L 3.96875 0 C 2.8125 0 1.941406 -0.328125 1.359375 -0.984375 C 0.785156 -1.648438 0.582031 -2.5625 0.75 -3.71875 L 21.09375 -169.9375 C 21.257812 -171.101562 21.710938 -172.015625 22.453125 -172.671875 C 23.191406 -173.335938 24.0625 -173.671875 25.0625 -173.671875 L 62.765625 -173.671875 C 64.753906 -173.671875 66.078125 -172.757812 66.734375 -170.9375 L 79.890625 -138.6875 C 80.210938 -138.019531 80.707031 -138.019531 81.375 -138.6875 Z M 101.96875 -170.9375 "/></g></g></g><g fill="#ff0000" fill-opacity="1"><g transform="translate(193.847869, 365.435395)"><g><path d="M 21.171875 -0.28125 C 20.515625 -0.28125 20.019531 -0.46875 19.6875 -0.84375 C 19.351562 -1.21875 19.238281 -1.738281 19.34375 -2.40625 L 23.28125 -35 C 23.375 -35.1875 23.375 -35.46875 23.28125 -35.84375 L 11.578125 -96.40625 L 11.578125 -96.96875 C 11.578125 -98.1875 12.234375 -98.796875 13.546875 -98.796875 L 36.265625 -98.796875 C 37.585938 -98.796875 38.296875 -98.1875 38.390625 -96.96875 L 40.078125 -68.59375 C 40.078125 -68.3125 40.195312 -68.171875 40.4375 -68.171875 C 40.675781 -68.171875 40.84375 -68.3125 40.9375 -68.59375 L 49.546875 -96.96875 C 49.921875 -98.1875 50.765625 -98.796875 52.078125 -98.796875 L 74.796875 -98.796875 C 75.554688 -98.796875 76.050781 -98.582031 76.28125 -98.15625 C 76.519531 -97.738281 76.5 -97.15625 76.21875 -96.40625 L 49.265625 -35.84375 L 49.109375 -35 L 45.03125 -2.40625 C 44.925781 -1.738281 44.6875 -1.21875 44.3125 -0.84375 C 43.9375 -0.46875 43.421875 -0.28125 42.765625 -0.28125 Z M 21.171875 -0.28125 "/></g></g></g><g fill="#00ffff" fill-opacity="1"><g transform="translate(205.193625, 362.816025)"><g><path d="M 21.171875 -0.28125 C 20.515625 -0.28125 20.019531 -0.46875 19.6875 -0.84375 C 19.351562 -1.21875 19.238281 -1.738281 19.34375 -2.40625 L 23.28125 -35 C 23.375 -35.1875 23.375 -35.46875 23.28125 -35.84375 L 11.578125 -96.40625 L 11.578125 -96.96875 C 11.578125 -98.1875 12.234375 -98.796875 13.546875 -98.796875 L 36.265625 -98.796875 C 37.585938 -98.796875 38.296875 -98.1875 38.390625 -96.96875 L 40.078125 -68.59375 C 40.078125 -68.3125 40.195312 -68.171875 40.4375 -68.171875 C 40.675781 -68.171875 40.84375 -68.3125 40.9375 -68.59375 L 49.546875 -96.96875 C 49.921875 -98.1875 50.765625 -98.796875 52.078125 -98.796875 L 74.796875 -98.796875 C 75.554688 -98.796875 76.050781 -98.582031 76.28125 -98.15625 C 76.519531 -97.738281 76.5 -97.15625 76.21875 -96.40625 L 49.265625 -35.84375 L 49.109375 -35 L 45.03125 -2.40625 C 44.925781 -1.738281 44.6875 -1.21875 44.3125 -0.84375 C 43.9375 -0.46875 43.421875 -0.28125 42.765625 -0.28125 Z M 21.171875 -0.28125 "/></g></g></g><g fill="#191919" fill-opacity="1"><g transform="translate(199.520746, 364.125711)"><g><path d="M 21.171875 -0.28125 C 20.515625 -0.28125 20.019531 -0.46875 19.6875 -0.84375 C 19.351562 -1.21875 19.238281 -1.738281 19.34375 -2.40625 L 23.28125 -35 C 23.375 -35.1875 23.375 -35.46875 23.28125 -35.84375 L 11.578125 -96.40625 L 11.578125 -96.96875 C 11.578125 -98.1875 12.234375 -98.796875 13.546875 -98.796875 L 36.265625 -98.796875 C 37.585938 -98.796875 38.296875 -98.1875 38.390625 -96.96875 L 40.078125 -68.59375 C 40.078125 -68.3125 40.195312 -68.171875 40.4375 -68.171875 C 40.675781 -68.171875 40.84375 -68.3125 40.9375 -68.59375 L 49.546875 -96.96875 C 49.921875 -98.1875 50.765625 -98.796875 52.078125 -98.796875 L 74.796875 -98.796875 C 75.554688 -98.796875 76.050781 -98.582031 76.28125 -98.15625 C 76.519531 -97.738281 76.5 -97.15625 76.21875 -96.40625 L 49.265625 -35.84375 L 49.109375 -35 L 45.03125 -2.40625 C 44.925781 -1.738281 44.6875 -1.21875 44.3125 -0.84375 C 43.9375 -0.46875 43.421875 -0.28125 42.765625 -0.28125 Z M 21.171875 -0.28125 "/></g></g></g><g fill="#ff0000" fill-opacity="1"><g transform="translate(83.706091, 366.097524)"><g><path d="M 52.34375 1.984375 C 37.789062 1.984375 26.335938 -1.859375 17.984375 -9.546875 C 9.628906 -17.242188 5.453125 -27.707031 5.453125 -40.9375 C 5.453125 -42.425781 5.617188 -44.988281 5.953125 -48.625 L 15.375 -125.28125 C 17.195312 -140.664062 23.484375 -152.90625 34.234375 -162 C 44.984375 -171.101562 58.300781 -175.65625 74.1875 -175.65625 C 88.570312 -175.65625 100.019531 -171.765625 108.53125 -163.984375 C 117.050781 -156.210938 121.3125 -145.710938 121.3125 -132.484375 C 121.3125 -130.660156 121.148438 -128.097656 120.828125 -124.796875 L 119.828125 -116.609375 C 119.328125 -114.117188 117.921875 -112.875 115.609375 -112.875 L 77.65625 -112.875 C 76.5 -112.875 75.628906 -113.207031 75.046875 -113.875 C 74.472656 -114.539062 74.265625 -115.453125 74.421875 -116.609375 L 75.671875 -125.28125 C 76.003906 -128.425781 75.585938 -130.945312 74.421875 -132.84375 C 73.265625 -134.75 71.613281 -135.703125 69.46875 -135.703125 C 67.15625 -135.703125 65.171875 -134.75 63.515625 -132.84375 C 61.859375 -130.945312 60.863281 -128.425781 60.53125 -125.28125 L 51.109375 -48.375 C 50.773438 -45.238281 51.1875 -42.71875 52.34375 -40.8125 C 53.5 -38.90625 55.15625 -37.953125 57.3125 -37.953125 C 59.625 -37.953125 61.566406 -38.90625 63.140625 -40.8125 C 64.710938 -42.71875 65.664062 -45.238281 66 -48.375 L 67.734375 -60.78125 C 67.734375 -61.613281 67.316406 -62.03125 66.484375 -62.03125 L 64.5 -62.03125 C 63.34375 -62.03125 62.472656 -62.359375 61.890625 -63.015625 C 61.316406 -63.679688 61.113281 -64.59375 61.28125 -65.75 L 64.75 -94.28125 C 64.914062 -95.4375 65.367188 -96.34375 66.109375 -97 C 66.859375 -97.664062 67.726562 -98 68.71875 -98 L 113.875 -98 C 115.03125 -98 115.894531 -97.664062 116.46875 -97 C 117.050781 -96.34375 117.257812 -95.4375 117.09375 -94.28125 L 111.390625 -48.625 C 109.578125 -33.238281 103.253906 -20.957031 92.421875 -11.78125 C 81.585938 -2.601562 68.226562 1.984375 52.34375 1.984375 Z M 52.34375 1.984375 "/></g></g></g><g fill="#00ffff" fill-opacity="1"><g transform="translate(103.650709, 361.49293)"><g><path d="M 52.34375 1.984375 C 37.789062 1.984375 26.335938 -1.859375 17.984375 -9.546875 C 9.628906 -17.242188 5.453125 -27.707031 5.453125 -40.9375 C 5.453125 -42.425781 5.617188 -44.988281 5.953125 -48.625 L 15.375 -125.28125 C 17.195312 -140.664062 23.484375 -152.90625 34.234375 -162 C 44.984375 -171.101562 58.300781 -175.65625 74.1875 -175.65625 C 88.570312 -175.65625 100.019531 -171.765625 108.53125 -163.984375 C 117.050781 -156.210938 121.3125 -145.710938 121.3125 -132.484375 C 121.3125 -130.660156 121.148438 -128.097656 120.828125 -124.796875 L 119.828125 -116.609375 C 119.328125 -114.117188 117.921875 -112.875 115.609375 -112.875 L 77.65625 -112.875 C 76.5 -112.875 75.628906 -113.207031 75.046875 -113.875 C 74.472656 -114.539062 74.265625 -115.453125 74.421875 -116.609375 L 75.671875 -125.28125 C 76.003906 -128.425781 75.585938 -130.945312 74.421875 -132.84375 C 73.265625 -134.75 71.613281 -135.703125 69.46875 -135.703125 C 67.15625 -135.703125 65.171875 -134.75 63.515625 -132.84375 C 61.859375 -130.945312 60.863281 -128.425781 60.53125 -125.28125 L 51.109375 -48.375 C 50.773438 -45.238281 51.1875 -42.71875 52.34375 -40.8125 C 53.5 -38.90625 55.15625 -37.953125 57.3125 -37.953125 C 59.625 -37.953125 61.566406 -38.90625 63.140625 -40.8125 C 64.710938 -42.71875 65.664062 -45.238281 66 -48.375 L 67.734375 -60.78125 C 67.734375 -61.613281 67.316406 -62.03125 66.484375 -62.03125 L 64.5 -62.03125 C 63.34375 -62.03125 62.472656 -62.359375 61.890625 -63.015625 C 61.316406 -63.679688 61.113281 -64.59375 61.28125 -65.75 L 64.75 -94.28125 C 64.914062 -95.4375 65.367188 -96.34375 66.109375 -97 C 66.859375 -97.664062 67.726562 -98 68.71875 -98 L 113.875 -98 C 115.03125 -98 115.894531 -97.664062 116.46875 -97 C 117.050781 -96.34375 117.257812 -95.4375 117.09375 -94.28125 L 111.390625 -48.625 C 109.578125 -33.238281 103.253906 -20.957031 92.421875 -11.78125 C 81.585938 -2.601562 68.226562 1.984375 52.34375 1.984375 Z M 52.34375 1.984375 "/></g></g></g><g fill="#191919" fill-opacity="1"><g transform="translate(93.6784, 363.795227)"><g><path d="M 52.34375 1.984375 C 37.789062 1.984375 26.335938 -1.859375 17.984375 -9.546875 C 9.628906 -17.242188 5.453125 -27.707031 5.453125 -40.9375 C 5.453125 -42.425781 5.617188 -44.988281 5.953125 -48.625 L 15.375 -125.28125 C 17.195312 -140.664062 23.484375 -152.90625 34.234375 -162 C 44.984375 -171.101562 58.300781 -175.65625 74.1875 -175.65625 C 88.570312 -175.65625 100.019531 -171.765625 108.53125 -163.984375 C 117.050781 -156.210938 121.3125 -145.710938 121.3125 -132.484375 C 121.3125 -130.660156 121.148438 -128.097656 120.828125 -124.796875 L 119.828125 -116.609375 C 119.328125 -114.117188 117.921875 -112.875 115.609375 -112.875 L 77.65625 -112.875 C 76.5 -112.875 75.628906 -113.207031 75.046875 -113.875 C 74.472656 -114.539062 74.265625 -115.453125 74.421875 -116.609375 L 75.671875 -125.28125 C 76.003906 -128.425781 75.585938 -130.945312 74.421875 -132.84375 C 73.265625 -134.75 71.613281 -135.703125 69.46875 -135.703125 C 67.15625 -135.703125 65.171875 -134.75 63.515625 -132.84375 C 61.859375 -130.945312 60.863281 -128.425781 60.53125 -125.28125 L 51.109375 -48.375 C 50.773438 -45.238281 51.1875 -42.71875 52.34375 -40.8125 C 53.5 -38.90625 55.15625 -37.953125 57.3125 -37.953125 C 59.625 -37.953125 61.566406 -38.90625 63.140625 -40.8125 C 64.710938 -42.71875 65.664062 -45.238281 66 -48.375 L 67.734375 -60.78125 C 67.734375 -61.613281 67.316406 -62.03125 66.484375 -62.03125 L 64.5 -62.03125 C 63.34375 -62.03125 62.472656 -62.359375 61.890625 -63.015625 C 61.316406 -63.679688 61.113281 -64.59375 61.28125 -65.75 L 64.75 -94.28125 C 64.914062 -95.4375 65.367188 -96.34375 66.109375 -97 C 66.859375 -97.664062 67.726562 -98 68.71875 -98 L 113.875 -98 C 115.03125 -98 115.894531 -97.664062 116.46875 -97 C 117.050781 -96.34375 117.257812 -95.4375 117.09375 -94.28125 L 111.390625 -48.625 C 109.578125 -33.238281 103.253906 -20.957031 92.421875 -11.78125 C 81.585938 -2.601562 68.226562 1.984375 52.34375 1.984375 Z M 52.34375 1.984375 "/></g></g></g><g fill="#0057ff" fill-opacity="0.302"><g transform="translate(144.115244, 404.55428)"><g><path d="M 10.78125 0 L 10.78125 -50.90625 L 1.296875 -50.90625 L 1.296875 -59.96875 L 29.765625 -59.96875 L 29.765625 -50.90625 L 20.28125 -50.90625 L 20.28125 0 Z M 10.78125 0 "/></g></g></g><g fill="#0057ff" fill-opacity="0.302"><g transform="translate(175.17632, 404.55428)"><g><path d="M 25.015625 0 L 15.09375 -22.4375 L 12.9375 -21.3125 L 12.9375 0 L 3.453125 0 L 3.453125 -59.96875 L 22 -59.96875 C 24.125 -59.96875 25.945312 -59.175781 27.46875 -57.59375 C 29 -56.007812 29.765625 -54.066406 29.765625 -51.765625 L 29.765625 -29.9375 L 23.46875 -26.75 L 35.375 0 Z M 20.28125 -35.8125 L 20.28125 -50.90625 L 12.9375 -50.90625 L 12.9375 -31.921875 Z M 20.28125 -35.8125 "/></g></g></g><g fill="#0057ff" fill-opacity="0.302"><g transform="translate(208.394413, 404.55428)"><g><path d="M 3.453125 0 L 3.453125 -51.765625 C 3.453125 -54.066406 4.210938 -56.007812 5.734375 -57.59375 C 7.265625 -59.175781 9.09375 -59.96875 11.21875 -59.96875 L 22 -59.96875 C 24.125 -59.96875 25.945312 -59.175781 27.46875 -57.59375 C 29 -56.007812 29.765625 -54.066406 29.765625 -51.765625 L 29.765625 0 L 20.28125 0 L 20.28125 -25.453125 L 12.9375 -21.578125 L 12.9375 0 Z M 12.9375 -32.1875 L 20.28125 -36.0625 L 20.28125 -50.90625 L 12.9375 -50.90625 Z M 12.9375 -32.1875 "/></g></g></g><g fill="#0057ff" fill-opacity="0.302"><g transform="translate(241.612505, 404.55428)"><g><path d="M 20.28125 -16.390625 L 29.765625 -21.140625 L 29.765625 -8.203125 C 29.765625 -5.898438 29 -3.957031 27.46875 -2.375 C 25.945312 -0.789062 24.125 0 22 0 L 11.21875 0 C 9.09375 0 7.265625 -0.800781 5.734375 -2.40625 C 4.210938 -4.019531 3.453125 -5.953125 3.453125 -8.203125 L 3.453125 -51.765625 C 3.453125 -54.066406 4.210938 -56.007812 5.734375 -57.59375 C 7.265625 -59.175781 9.09375 -59.96875 11.21875 -59.96875 L 22 -59.96875 C 24.125 -59.96875 25.945312 -59.175781 27.46875 -57.59375 C 29 -56.007812 29.765625 -54.066406 29.765625 -51.765625 L 29.765625 -46.59375 L 20.28125 -41.84375 L 20.28125 -50.90625 L 12.9375 -50.90625 L 12.9375 -9.0625 L 20.28125 -9.0625 Z M 20.28125 -16.390625 "/></g></g></g><g fill="#0057ff" fill-opacity="0.302"><g transform="translate(273.967785, 404.55428)"><g><path d="M 36.671875 0 L 26.578125 0 L 17 -24.5 L 12.9375 -16.140625 L 12.9375 0 L 3.453125 0 L 3.453125 -59.96875 L 12.9375 -59.96875 L 12.9375 -37.28125 L 23.125 -59.96875 L 33.484375 -59.96875 L 22.171875 -35.640625 Z M 36.671875 0 "/></g></g></g><g fill="#0057ff" fill-opacity="0.302"><g transform="translate(308.911486, 404.55428)"><g><path d="M 3.453125 -45.71875 L 3.453125 -59.953125 L 12.9375 -59.953125 L 12.9375 -50.46875 Z M 3.453125 -45.71875 "/></g></g></g><g fill="#0057ff" fill-opacity="0.302"><g transform="translate(325.304829, 404.55428)"><g><path d="M 25.015625 0 L 15.09375 -22.4375 L 12.9375 -21.3125 L 12.9375 0 L 3.453125 0 L 3.453125 -59.96875 L 22 -59.96875 C 24.125 -59.96875 25.945312 -59.175781 27.46875 -57.59375 C 29 -56.007812 29.765625 -54.066406 29.765625 -51.765625 L 29.765625 -29.9375 L 23.46875 -26.75 L 35.375 0 Z M 20.28125 -35.8125 L 20.28125 -50.90625 L 12.9375 -50.90625 L 12.9375 -31.921875 Z M 20.28125 -35.8125 "/></g></g></g><g fill="#0057ff" fill-opacity="0.502"><g transform="translate(141.272304, 402.411974)"><g><path d="M 10.78125 0 L 10.78125 -50.90625 L 1.296875 -50.90625 L 1.296875 -59.96875 L 29.765625 -59.96875 L 29.765625 -50.90625 L 20.28125 -50.90625 L 20.28125 0 Z M 10.78125 0 "/></g></g></g><g fill="#0057ff" fill-opacity="0.502"><g transform="translate(172.333381, 402.411974)"><g><path d="M 25.015625 0 L 15.09375 -22.4375 L 12.9375 -21.3125 L 12.9375 0 L 3.453125 0 L 3.453125 -59.96875 L 22 -59.96875 C 24.125 -59.96875 25.945312 -59.175781 27.46875 -57.59375 C 29 -56.007812 29.765625 -54.066406 29.765625 -51.765625 L 29.765625 -29.9375 L 23.46875 -26.75 L 35.375 0 Z M 20.28125 -35.8125 L 20.28125 -50.90625 L 12.9375 -50.90625 L 12.9375 -31.921875 Z M 20.28125 -35.8125 "/></g></g></g><g fill="#0057ff" fill-opacity="0.502"><g transform="translate(205.551473, 402.411974)"><g><path d="M 3.453125 0 L 3.453125 -51.765625 C 3.453125 -54.066406 4.210938 -56.007812 5.734375 -57.59375 C 7.265625 -59.175781 9.09375 -59.96875 11.21875 -59.96875 L 22 -59.96875 C 24.125 -59.96875 25.945312 -59.175781 27.46875 -57.59375 C 29 -56.007812 29.765625 -54.066406 29.765625 -51.765625 L 29.765625 0 L 20.28125 0 L 20.28125 -25.453125 L 12.9375 -21.578125 L 12.9375 0 Z M 12.9375 -32.1875 L 20.28125 -36.0625 L 20.28125 -50.90625 L 12.9375 -50.90625 Z M 12.9375 -32.1875 "/></g></g></g><g fill="#0057ff" fill-opacity="0.502"><g transform="translate(238.769566, 402.411974)"><g><path d="M 20.28125 -16.390625 L 29.765625 -21.140625 L 29.765625 -8.203125 C 29.765625 -5.898438 29 -3.957031 27.46875 -2.375 C 25.945312 -0.789062 24.125 0 22 0 L 11.21875 0 C 9.09375 0 7.265625 -0.800781 5.734375 -2.40625 C 4.210938 -4.019531 3.453125 -5.953125 3.453125 -8.203125 L 3.453125 -51.765625 C 3.453125 -54.066406 4.210938 -56.007812 5.734375 -57.59375 C 7.265625 -59.175781 9.09375 -59.96875 11.21875 -59.96875 L 22 -59.96875 C 24.125 -59.96875 25.945312 -59.175781 27.46875 -57.59375 C 29 -56.007812 29.765625 -54.066406 29.765625 -51.765625 L 29.765625 -46.59375 L 20.28125 -41.84375 L 20.28125 -50.90625 L 12.9375 -50.90625 L 12.9375 -9.0625 L 20.28125 -9.0625 Z M 20.28125 -16.390625 "/></g></g></g><g fill="#0057ff" fill-opacity="0.502"><g transform="translate(271.124845, 402.411974)"><g><path d="M 36.671875 0 L 26.578125 0 L 17 -24.5 L 12.9375 -16.140625 L 12.9375 0 L 3.453125 0 L 3.453125 -59.96875 L 12.9375 -59.96875 L 12.9375 -37.28125 L 23.125 -59.96875 L 33.484375 -59.96875 L 22.171875 -35.640625 Z M 36.671875 0 "/></g></g></g><g fill="#0057ff" fill-opacity="0.502"><g transform="translate(306.068547, 402.411974)"><g><path d="M 3.453125 -45.71875 L 3.453125 -59.953125 L 12.9375 -59.953125 L 12.9375 -50.46875 Z M 3.453125 -45.71875 "/></g></g></g><g fill="#0057ff" fill-opacity="0.502"><g transform="translate(322.46189, 402.411974)"><g><path d="M 25.015625 0 L 15.09375 -22.4375 L 12.9375 -21.3125 L 12.9375 0 L 3.453125 0 L 3.453125 -59.96875 L 22 -59.96875 C 24.125 -59.96875 25.945312 -59.175781 27.46875 -57.59375 C 29 -56.007812 29.765625 -54.066406 29.765625 -51.765625 L 29.765625 -29.9375 L 23.46875 -26.75 L 35.375 0 Z M 20.28125 -35.8125 L 20.28125 -50.90625 L 12.9375 -50.90625 L 12.9375 -31.921875 Z M 20.28125 -35.8125 "/></g></g></g><g fill="#ffffff" fill-opacity="1"><g transform="translate(138.429379, 400.269671)"><g><path d="M 10.78125 0 L 10.78125 -50.90625 L 1.296875 -50.90625 L 1.296875 -59.96875 L 29.765625 -59.96875 L 29.765625 -50.90625 L 20.28125 -50.90625 L 20.28125 0 Z M 10.78125 0 "/></g></g></g><g fill="#ffffff" fill-opacity="1"><g transform="translate(169.490456, 400.269671)"><g><path d="M 25.015625 0 L 15.09375 -22.4375 L 12.9375 -21.3125 L 12.9375 0 L 3.453125 0 L 3.453125 -59.96875 L 22 -59.96875 C 24.125 -59.96875 25.945312 -59.175781 27.46875 -57.59375 C 29 -56.007812 29.765625 -54.066406 29.765625 -51.765625 L 29.765625 -29.9375 L 23.46875 -26.75 L 35.375 0 Z M 20.28125 -35.8125 L 20.28125 -50.90625 L 12.9375 -50.90625 L 12.9375 -31.921875 Z M 20.28125 -35.8125 "/></g></g></g><g fill="#ffffff" fill-opacity="1"><g transform="translate(202.708548, 400.269671)"><g><path d="M 3.453125 0 L 3.453125 -51.765625 C 3.453125 -54.066406 4.210938 -56.007812 5.734375 -57.59375 C 7.265625 -59.175781 9.09375 -59.96875 11.21875 -59.96875 L 22 -59.96875 C 24.125 -59.96875 25.945312 -59.175781 27.46875 -57.59375 C 29 -56.007812 29.765625 -54.066406 29.765625 -51.765625 L 29.765625 0 L 20.28125 0 L 20.28125 -25.453125 L 12.9375 -21.578125 L 12.9375 0 Z M 12.9375 -32.1875 L 20.28125 -36.0625 L 20.28125 -50.90625 L 12.9375 -50.90625 Z M 12.9375 -32.1875 "/></g></g></g><g fill="#ffffff" fill-opacity="1"><g transform="translate(235.926641, 400.269671)"><g><path d="M 20.28125 -16.390625 L 29.765625 -21.140625 L 29.765625 -8.203125 C 29.765625 -5.898438 29 -3.957031 27.46875 -2.375 C 25.945312 -0.789062 24.125 0 22 0 L 11.21875 0 C 9.09375 0 7.265625 -0.800781 5.734375 -2.40625 C 4.210938 -4.019531 3.453125 -5.953125 3.453125 -8.203125 L 3.453125 -51.765625 C 3.453125 -54.066406 4.210938 -56.007812 5.734375 -57.59375 C 7.265625 -59.175781 9.09375 -59.96875 11.21875 -59.96875 L 22 -59.96875 C 24.125 -59.96875 25.945312 -59.175781 27.46875 -57.59375 C 29 -56.007812 29.765625 -54.066406 29.765625 -51.765625 L 29.765625 -46.59375 L 20.28125 -41.84375 L 20.28125 -50.90625 L 12.9375 -50.90625 L 12.9375 -9.0625 L 20.28125 -9.0625 Z M 20.28125 -16.390625 "/></g></g></g><g fill="#ffffff" fill-opacity="1"><g transform="translate(268.28192, 400.269671)"><g><path d="M 36.671875 0 L 26.578125 0 L 17 -24.5 L 12.9375 -16.140625 L 12.9375 0 L 3.453125 0 L 3.453125 -59.96875 L 12.9375 -59.96875 L 12.9375 -37.28125 L 23.125 -59.96875 L 33.484375 -59.96875 L 22.171875 -35.640625 Z M 36.671875 0 "/></g></g></g><g fill="#ffffff" fill-opacity="1"><g transform="translate(303.225622, 400.269671)"><g><path d="M 3.453125 -45.71875 L 3.453125 -59.953125 L 12.9375 -59.953125 L 12.9375 -50.46875 Z M 3.453125 -45.71875 "/></g></g></g><g fill="#ffffff" fill-opacity="1"><g transform="translate(319.618965, 400.269671)"><g><path d="M 25.015625 0 L 15.09375 -22.4375 L 12.9375 -21.3125 L 12.9375 0 L 3.453125 0 L 3.453125 -59.96875 L 22 -59.96875 C 24.125 -59.96875 25.945312 -59.175781 27.46875 -57.59375 C 29 -56.007812 29.765625 -54.066406 29.765625 -51.765625 L 29.765625 -29.9375 L 23.46875 -26.75 L 35.375 0 Z M 20.28125 -35.8125 L 20.28125 -50.90625 L 12.9375 -50.90625 L 12.9375 -31.921875 Z M 20.28125 -35.8125 "/></g></g></g></svg>